<svg width="20" height="20" viewBox="0 0 20 20" fill="none" xmlns="http://www.w3.org/2000/svg">
<path d="M15.1979 11.727C16.9273 11.727 18.3331 13.1147 18.3331 14.8218C18.3331 16.5279 16.9273 17.9166 15.1979 17.9166C13.4685 17.9166 12.0626 16.5279 12.0626 14.8218C12.0626 13.1147 13.4685 11.727 15.1979 11.727ZM15.1979 13.1786C14.2793 13.1786 13.5332 13.915 13.5332 14.8218C13.5332 15.7276 14.2793 16.465 15.1979 16.465C16.1165 16.465 16.8626 15.7276 16.8626 14.8218C16.8626 13.915 16.1165 13.1786 15.1979 13.1786ZM8.43104 14.0957C8.83692 14.0957 9.16632 14.4209 9.16632 14.8215C9.16632 15.2221 8.83692 15.5473 8.43104 15.5473H2.40272C1.99684 15.5473 1.66743 15.2221 1.66743 14.8215C1.66743 14.4209 1.99684 14.0957 2.40272 14.0957H8.43104ZM4.80199 2.08325C6.53137 2.08325 7.93723 3.47195 7.93723 5.17805C7.93723 6.88416 6.53137 8.27286 4.80199 8.27286C3.07359 8.27286 1.66675 6.88416 1.66675 5.17805C1.66675 3.47195 3.07359 2.08325 4.80199 2.08325ZM4.80199 3.53485C3.88436 3.53485 3.13731 4.27226 3.13731 5.17805C3.13731 6.08385 3.88436 6.82126 4.80199 6.82126C5.7206 6.82126 6.46666 6.08385 6.46666 5.17805C6.46666 4.27226 5.7206 3.53485 4.80199 3.53485ZM17.5981 4.45245C18.004 4.45245 18.3334 4.77761 18.3334 5.17825C18.3334 5.57889 18.004 5.90405 17.5981 5.90405H11.5688C11.163 5.90405 10.8335 5.57889 10.8335 5.17825C10.8335 4.77761 11.163 4.45245 11.5688 4.45245H17.5981Z" fill="white"/>
</svg>
