<svg width="20" height="20" viewBox="0 0 20 20" fill="none" xmlns="http://www.w3.org/2000/svg">
<path d="M16.9512 16.0073C17.2543 16.0073 17.5 16.2481 17.5 16.5452C17.5 16.8176 17.2935 17.0426 17.0257 17.0783L16.9512 17.0832H11.2258C10.9227 17.0832 10.677 16.8423 10.677 16.5452C10.677 16.2729 10.8835 16.0478 11.1514 16.0122L11.2258 16.0073H16.9512ZM11.3827 3.68035C12.4217 2.66189 14.1069 2.66189 15.1459 3.68035L16.2245 4.73767C17.2635 5.75613 17.2635 7.40804 16.2245 8.42651L8.11717 16.3737C7.65359 16.8281 7.02506 17.0831 6.36901 17.0831H3.04878C2.74035 17.0831 2.49249 16.834 2.50017 16.5317L2.58369 13.2477C2.6003 12.627 2.85939 12.0353 3.30722 11.5963L11.3827 3.68035ZM10.755 5.81567L4.08332 12.357C3.83438 12.6011 3.69012 12.9306 3.68089 13.2752L3.61121 16.0068L6.36901 16.0072C6.69352 16.0072 7.00559 15.8952 7.2519 15.693L7.34108 15.6129L14.0458 9.04067L10.755 5.81567ZM14.3698 4.44111C13.7594 3.84281 12.7691 3.84281 12.1588 4.44111L11.5317 5.05484L14.8217 8.27984L15.4484 7.66574C16.0249 7.10068 16.0569 6.20344 15.5445 5.60147L15.4484 5.49843L14.3698 4.44111Z" fill="#FFCA40"/>
</svg>
