<svg width="24" height="24" viewBox="0 0 24 24" fill="none" xmlns="http://www.w3.org/2000/svg">
<path d="M9.73024 2.78823C11.0002 1.77923 12.7802 1.73923 14.0892 2.66823L14.2502 2.78823L20.3392 7.65923C21.0092 8.17823 21.4202 8.94923 21.4902 9.78823L21.5002 9.98923V18.0982C21.5002 20.1882 19.8492 21.8882 17.7802 21.9982H15.7902C14.8392 21.9792 14.0702 21.2392 14.0002 20.3092L13.9902 20.1682V17.3092C13.9902 16.9982 13.7592 16.7392 13.4502 16.6882L13.3602 16.6782H10.6892C10.3702 16.6882 10.1102 16.9182 10.0702 17.2182L10.0602 17.3092V20.1592C10.0602 20.2182 10.0492 20.2882 10.0402 20.3382L10.0302 20.3592L10.0192 20.4282C9.90024 21.2792 9.20024 21.9282 8.33024 21.9892L8.20024 21.9982H6.41024C4.32024 21.9982 2.61024 20.3592 2.50024 18.2982V9.98923C2.50924 9.13823 2.88024 8.34823 3.50024 7.79823L9.73024 2.78823ZM13.3802 3.87823C12.6202 3.26823 11.5402 3.23923 10.7402 3.76823L10.5892 3.87823L4.50924 8.77923C4.16024 9.03823 3.95024 9.42823 3.90024 9.83823L3.88924 9.99823V18.0982C3.88924 19.4282 4.92924 20.5182 6.25024 20.5982H8.20024C8.42024 20.5982 8.61024 20.4492 8.63924 20.2392L8.66024 20.0592L8.67024 20.0082V17.3092C8.67024 16.2392 9.49024 15.3692 10.5402 15.2882H13.3602C14.4292 15.2882 15.2992 16.1092 15.3802 17.1592V20.1682C15.3802 20.3782 15.5302 20.5592 15.7302 20.5982H17.5892C18.9292 20.5982 20.0192 19.5692 20.0992 18.2582L20.1102 18.0982V9.99823C20.0992 9.56923 19.9202 9.16823 19.6102 8.86923L19.4802 8.75823L13.3802 3.87823Z" fill="#FFCA40"/>
</svg>
